<?xml version="1.0" encoding="iso-8859-1"?>
<!-- Generator: Adobe Illustrator 19.0.0, SVG Export Plug-In . SVG Version: 6.00 Build 0)  -->
<svg version="1.1" id="Layer_1" xmlns="http://www.w3.org/2000/svg" xmlns:xlink="http://www.w3.org/1999/xlink" x="0px" y="0px"
	 viewBox="0 0 495 495" style="enable-background:new 0 0 495 495;" xml:space="preserve">
<path style="fill:#2488FF;" d="M422.509,72.491C375.763,25.745,313.609,0,247.5,0S119.237,25.745,72.491,72.491
	C25.744,119.238,0,181.39,0,247.5s25.744,128.262,72.491,175.009C119.237,469.255,181.391,495,247.5,495
	c33.404,0,65.819-6.546,96.345-19.458l-15.582-36.84C302.694,449.517,275.521,455,247.5,455C133.084,455,40,361.916,40,247.5
	S133.084,40,247.5,40S455,133.084,455,247.5c0,48.147-28.042,69.699-55.833,69.699c-27.792,0-55.834-21.551-55.834-69.699
	c0-52.843-42.99-95.833-95.833-95.833s-95.833,42.991-95.833,95.833s42.99,95.833,95.833,95.833
	c28.55,0,54.219-12.554,71.791-32.426c18.099,30.556,49.107,46.291,79.876,46.291C446.79,357.199,495,319.518,495,247.5
	C495,181.39,469.256,119.238,422.509,72.491z M247.5,303.333c-30.786,0-55.833-25.047-55.833-55.833s25.047-55.833,55.833-55.833
	s55.833,25.047,55.833,55.833S278.286,303.333,247.5,303.333z"/>
<g>
</g>
<g>
</g>
<g>
</g>
<g>
</g>
<g>
</g>
<g>
</g>
<g>
</g>
<g>
</g>
<g>
</g>
<g>
</g>
<g>
</g>
<g>
</g>
<g>
</g>
<g>
</g>
<g>
</g>
</svg>
